# xmcd CD database file
#
# Track frame offsets:
#	150
#	17031
#	32665
#	54562
#	69408
#	89337
#	107651
#	117160
#	131697
#	148408
#	162607
#	181236
#	203660
#
# Disc length: 2980 seconds
#
# Revision: 2
# Processed by: cddbd v1.4b41PL1 Copyright (c) Steve Scherf et al.
# Submitted via: Feurio! 1.52 - http://www.feurio.com
#
DISCID=b80ba20d
DTITLE=Keimzeit - Irrenhaus 
DYEAR=1900
DGENRE=
TTITLE0=Ratten 
TTITLE1=Hofnarr 
TTITLE2=Mama 
TTITLE3=Irrenhaus 
TTITLE4=Frühling 
TTITLE5=Keine Männer 
TTITLE6=Betrunken 
TTITLE7=Kintopp 
TTITLE8=Rosi 
TTITLE9=Schwein 
TTITLE10=Der Löwe 
TTITLE11=Flugzeuge 
TTITLE12=SO 
EXTD=
EXTT0=
EXTT1=
EXTT2=
EXTT3=
EXTT4=
EXTT5=
EXTT6=
EXTT7=
EXTT8=
EXTT9=
EXTT10=
EXTT11=
EXTT12=
PLAYORDER=
